<?xml version="1.0" standalone="no"?>
<!DOCTYPE svg PUBLIC "-//W3C//DTD SVG 20010904//EN"
 "http://www.w3.org/TR/2001/REC-SVG-20010904/DTD/svg10.dtd">
<svg version="1.0" xmlns="http://www.w3.org/2000/svg"
 width="1080.000000pt" height="1350.000000pt" viewBox="0 0 1080.000000 1350.000000"
 preserveAspectRatio="xMidYMid meet">

<g transform="translate(0.000000,1350.000000) scale(0.100000,-0.100000)"
fill="#000000" stroke="#FFFFFF">
<path d="M4343 9511 c-134 -33 -324 -244 -413 -459 -62 -148 -73 -227 -74
-527 -1 -271 4 -337 45 -594 l19 -124 -20 -14 c-27 -19 -25 -30 9 -47 24 -13
30 -24 38 -78 9 -52 8 -66 -4 -79 -13 -15 -12 -19 6 -31 17 -12 30 -59 71
-262 28 -136 50 -249 48 -250 -35 -21 -128 -100 -179 -153 -158 -162 -265
-329 -303 -475 -46 -177 -45 -480 3 -858 48 -381 93 -580 186 -830 75 -203
139 -304 271 -431 121 -115 222 -171 429 -238 222 -73 367 -85 651 -56 458 48
621 88 971 236 367 156 737 490 898 808 58 116 123 363 176 671 37 215 37 818
0 864 -5 6 -15 43 -24 81 -8 39 -16 75 -18 80 -1 6 9 34 25 63 41 80 63 182
82 374 19 192 12 336 -24 473 -33 126 -126 276 -191 309 -40 21 -185 39 -255
33 -86 -9 -175 -34 -217 -62 l-36 -24 -44 45 c-77 79 -231 134 -375 134 -66 0
-235 -33 -305 -59 l-49 -19 0 46 c0 26 7 128 15 227 27 337 16 574 -35 741
-52 170 -107 266 -169 298 -102 53 -277 4 -375 -105 -106 -117 -222 -328 -297
-536 -18 -51 -34 -91 -36 -89 -2 1 -12 80 -23 174 -23 199 -38 270 -80 376
-46 117 -74 167 -129 233 -89 107 -184 154 -268 134z m102 -51 c14 -5 59 -43
99 -83 79 -81 108 -133 162 -291 56 -163 61 -203 94 -804 8 -144 7 -186 -3
-196 -30 -30 -157 -116 -212 -144 -84 -42 -216 -87 -310 -106 -106 -21 -296
-39 -305 -29 -10 11 -47 286 -61 448 -15 174 -6 515 16 619 46 219 152 392
323 528 81 65 136 81 197 58z m1093 -184 c62 -32 158 -280 173 -446 13 -145
11 -330 -6 -485 -10 -98 -15 -255 -15 -525 0 -238 -4 -399 -11 -423 -12 -43
-4 -77 17 -77 32 0 38 50 35 341 l-2 285 58 27 c175 81 417 86 562 12 70 -35
136 -106 161 -172 41 -110 22 -302 -61 -595 -55 -197 -123 -334 -202 -410 -85
-83 -184 -130 -286 -136 -64 -4 -86 -1 -125 17 -73 32 -120 74 -155 141 -18
33 -36 60 -41 60 -4 0 -1 21 7 48 20 65 12 194 -15 247 -30 58 -89 115 -152
144 -49 23 -67 26 -155 25 -84 -2 -225 -21 -361 -49 l-32 -7 -6 98 c-27 417
-49 727 -62 886 -13 166 -13 190 0 210 8 13 25 63 37 111 38 153 202 463 306
577 92 103 237 145 331 96z m-719 -1318 l0 -83 -91 -64 c-50 -35 -125 -79
-167 -99 -160 -74 -226 -88 -477 -106 -92 -7 -85 -13 -99 85 l-7 46 69 7 c280
28 640 158 742 270 14 14 26 26 28 26 2 0 3 -37 2 -82z m2153 -28 c51 -15 102
-76 154 -184 57 -118 68 -181 68 -406 -1 -200 -22 -361 -64 -472 -41 -111
-222 -310 -294 -323 -87 -17 -176 29 -276 142 -60 68 -70 92 -95 230 l-23 123
25 77 c41 132 91 334 104 422 14 97 7 228 -14 288 l-16 41 40 26 c61 41 139
56 254 51 55 -2 116 -9 137 -15z m-2122 -439 c6 -85 13 -166 16 -180 5 -25 2
-27 -63 -45 -37 -11 -204 -65 -370 -121 l-302 -102 -11 56 c-7 31 -27 112 -45
181 -51 185 -65 261 -51 265 6 1 67 8 136 15 137 12 226 30 309 61 87 32 273
125 316 157 l40 31 7 -82 c3 -45 12 -151 18 -236z m593 -195 c57 -21 104 -62
137 -119 26 -46 30 -61 30 -133 0 -75 -3 -88 -40 -160 -76 -152 -221 -305
-415 -435 -44 -30 -165 -106 -269 -169 -223 -136 -266 -170 -250 -197 17 -29
51 -41 281 -99 446 -112 509 -134 758 -265 94 -49 159 -77 169 -73 11 4 16 1
16 -10 0 -21 29 -21 37 0 4 11 -3 23 -18 36 -40 32 -317 165 -444 213 -194 74
-641 197 -722 199 -68 2 -65 4 322 239 99 60 207 129 240 152 87 61 228 208
287 297 l51 77 21 -42 c63 -127 232 -209 373 -179 145 32 254 104 337 224 l52
76 18 -70 c24 -92 94 -197 178 -264 122 -98 122 -98 196 -97 37 0 83 7 102 15
37 16 116 87 168 153 23 28 32 34 32 21 0 -10 9 -48 19 -84 42 -148 58 -526
32 -747 -30 -246 -120 -639 -174 -755 -80 -173 -216 -341 -417 -515 -184 -158
-276 -215 -520 -323 -279 -124 -558 -183 -1044 -222 -284 -22 -588 59 -821
221 -80 55 -130 105 -205 204 -64 84 -91 143 -160 340 -86 251 -131 458 -172
801 -18 149 -22 243 -23 444 0 278 4 304 65 456 47 117 93 180 234 319 l131
130 85 26 c47 15 182 65 301 112 202 81 339 127 423 142 27 6 36 4 36 -7 0 -7
7 -24 16 -36 21 -30 44 -13 44 33 l0 32 153 25 c172 29 294 33 350 14z"/>
</g>
</svg>
